<svg viewBox="0 -10 600 430" fill="none" xmlns="http://www.w3.org/2000/svg">
    <path
        stroke="#807b4d"
        stroke-width="8"
        transform="scale(4.1), translate(21 3)"
        d="M87.5752 19H23.5752L21.4048 30.8021H47.4048L38 81.9445"
    />
    <path
        stroke="#ed7c02"
        stroke-width="8"
        transform="scale(4.1), translate(21 3)"
        d="M85.4049 30.8021H59.4048L50.4522 79.4858H76.4522"
    />
    <path
        id="text1312"
        fill="#666"
        transform="scale(0.60 0.60), translate(-100 -50)"
        d="m382.97 683.93v53.27h-22.94c-61.41 0-102.59-9.13-123.55-27.38-20.72-18.25-31.08-54.62-31.08-109.13v-88.41c0-37.24-6.66-63.01-19.97-77.31-13.32-14.31-37.49-21.46-72.51-21.46h-22.565v-52.9h22.565c35.27 0 59.44-7.03 72.51-21.09 13.31-14.3 19.97-39.82 19.97-76.57v-88.78c0-54.51 10.36-90.759 31.08-108.76 20.96-18.252 62.14-27.377 123.55-27.378h22.94v52.9h-25.16c-34.77 0.001-57.46 5.426-68.06 16.278-10.61 10.85-15.91 33.66-15.91 68.44v91.74c0 38.72-5.67 66.83-17.02 84.34-11.1 17.51-30.21 29.35-57.34 35.51 27.38 6.66 46.61 18.75 57.71 36.26s16.65 45.5 16.65 83.97v91.74c0 34.78 5.3 57.59 15.91 68.44 10.6 10.85 33.29 16.28 68.06 16.28h25.16"
    />
    <path
        id="text1316"
        fill="#666"
        transform="scale(-0.60 0.60), translate(-100 -50)"
        d="m-631.02 683.28v53.27h-22.93c-61.41 0-102.6-9.12-123.56-27.37-20.72-18.25-31.08-54.63-31.07-109.13v-88.41c-0.01-37.24-6.66-63.01-19.98-77.32-13.32-14.3-37.49-21.45-72.51-21.45h-22.56v-52.9h22.56c35.27 0 59.44-7.03 72.51-21.09 13.32-14.3 19.97-39.83 19.98-76.57v-88.79c-0.01-54.5 10.35-90.753 31.07-108.76 20.96-18.245 62.15-27.37 123.56-27.371h22.93v52.9h-25.15c-34.78 0-57.47 5.426-68.07 16.281-10.61 10.85-15.91 33.66-15.91 68.43v91.74c0 38.72-5.67 66.84-17.01 84.35-11.1 17.51-30.22 29.35-57.34 35.51 27.37 6.66 46.61 18.74 57.7 36.25 11.1 17.51 16.65 45.51 16.65 83.98v91.74c0 34.77 5.3 57.59 15.91 68.44 10.6 10.85 33.29 16.27 68.07 16.27h25.15"
    />
</svg>
